<svg xmlns="http://www.w3.org/2000/svg" width="360" height="481" viewBox="0 0 360 481" version="1.1"><path d="M 93.279 20.898 C 86.800 25.085, 82.286 29.343, 71.905 41.058 C 64.799 49.076, 55.666 54.911, 32.722 66.092 C 26.794 68.980, 22.294 71.691, 22.722 72.114 C 23.150 72.538, 28 74.703, 33.500 76.925 C 39 79.147, 43.180 80.973, 42.789 80.982 C 42.398 80.992, 32.968 82.350, 21.835 84 C 10.702 85.650, 1.167 87, 0.647 87 C 0.066 87, -0.034 92.483, 0.387 101.250 C 5.026 197.743, 29.614 293.420, 66.528 358.620 C 75.567 374.584, 86.311 390.759, 96.151 403.216 C 112.387 423.770, 152.861 461.705, 172.826 475.081 C 181.290 480.752, 179.881 481.018, 192.686 471.327 C 215.522 454.044, 248.175 422.931, 263.345 404 C 306.990 349.534, 337.652 270.345, 352.400 174 C 357.630 139.833, 362.436 84.995, 360.072 86.455 C 359.206 86.991, 338.428 84.364, 320.092 81.401 C 316.865 80.879, 317.211 80.638, 326.592 76.867 C 332.041 74.677, 336.852 72.536, 337.283 72.110 C 337.713 71.684, 333.663 69.202, 328.283 66.595 C 301.985 53.854, 291.705 46.783, 282.915 35.389 C 278.573 29.762, 268.900 21.501, 263.300 18.637 C 260.082 16.991, 245 16.218, 245 17.698 C 245 18.083, 246.145 22.149, 247.543 26.736 C 253.847 47.400, 260.535 80.484, 263.573 106.022 C 265.725 124.119, 266.579 171.465, 265.079 189.500 C 261.618 231.093, 253.274 272.926, 238.753 321.500 C 235.958 330.850, 233.403 338.819, 233.076 339.209 C 232.749 339.599, 230.096 320.249, 227.180 296.209 C 221.503 249.407, 209.281 153.783, 205.948 130.097 C 204.833 122.176, 203.119 113.319, 202.138 110.415 L 200.356 105.135 202.652 95.589 C 203.915 90.338, 206.985 81.101, 209.474 75.062 C 215.322 60.875, 215.352 58.089, 209.725 52.462 C 203.569 46.305, 197.103 44.570, 180.500 44.620 C 161.131 44.678, 152.721 47.927, 149.394 56.637 C 147.335 62.031, 147.926 64.477, 155.080 80.160 C 157.755 86.023, 160.797 93.900, 161.840 97.664 L 163.736 104.508 161.383 113.845 C 160.088 118.980, 158.114 131.353, 156.996 141.341 C 155.879 151.328, 151.165 189.425, 146.522 226 C 141.878 262.575, 136.691 304.650, 134.994 319.500 C 133.297 334.350, 131.567 347.353, 131.150 348.396 C 129.820 351.718, 114.866 301.283, 108.054 270.500 C 96.593 218.708, 93.361 189.602, 94.287 146.534 C 94.861 119.867, 96.990 97.124, 100.937 75.500 C 103.524 61.327, 111.323 29.804, 113.957 22.872 C 115.080 19.917, 115.999 17.387, 115.999 17.250 C 116 17.113, 112.245 17, 107.655 17 C 99.654 17, 99.062 17.161, 93.279 20.898 M 0.355 95.500 C 0.352 100.450, 0.521 102.601, 0.731 100.280 C 0.940 97.959, 0.943 93.909, 0.736 91.280 C 0.530 88.651, 0.358 90.550, 0.355 95.500" stroke="none" fill="#18263a" fill-rule="evenodd"/><path d="M 0 43.500 C 0 67.425, 0.358 87, 0.796 87 C 1.234 87, 10.702 85.650, 21.835 84 C 32.968 82.350, 42.398 80.992, 42.789 80.982 C 43.180 80.973, 39 79.147, 33.500 76.925 C 28 74.703, 23.150 72.538, 22.722 72.114 C 22.294 71.691, 26.794 68.980, 32.722 66.092 C 55.666 54.911, 64.799 49.076, 71.905 41.058 C 82.286 29.343, 86.800 25.085, 93.279 20.898 C 99.062 17.161, 99.654 17, 107.655 17 C 112.245 17, 116 17.113, 115.999 17.250 C 115.999 17.387, 115.080 19.917, 113.957 22.872 C 111.323 29.804, 103.524 61.327, 100.937 75.500 C 96.990 97.124, 94.861 119.867, 94.287 146.534 C 93.361 189.602, 96.593 218.708, 108.054 270.500 C 114.866 301.283, 129.820 351.718, 131.150 348.396 C 131.567 347.353, 133.297 334.350, 134.994 319.500 C 136.691 304.650, 141.878 262.575, 146.522 226 C 151.165 189.425, 155.879 151.328, 156.996 141.341 C 158.114 131.353, 160.088 118.980, 161.383 113.845 L 163.736 104.508 161.840 97.664 C 160.797 93.900, 157.755 86.023, 155.080 80.160 C 147.926 64.477, 147.335 62.031, 149.394 56.637 C 152.721 47.927, 161.131 44.678, 180.500 44.620 C 197.103 44.570, 203.569 46.305, 209.725 52.462 C 215.352 58.089, 215.322 60.875, 209.474 75.062 C 206.985 81.101, 203.915 90.338, 202.652 95.589 L 200.356 105.135 202.138 110.415 C 203.119 113.319, 204.833 122.176, 205.948 130.097 C 209.281 153.783, 221.503 249.407, 227.180 296.209 C 230.096 320.249, 232.749 339.599, 233.076 339.209 C 233.692 338.476, 242.273 310.206, 245.889 297 C 251.444 276.714, 259.916 234.745, 262.442 215 C 266.567 182.758, 267.059 135.334, 263.573 106.022 C 260.535 80.484, 253.847 47.400, 247.543 26.736 C 246.145 22.149, 245 18.083, 245 17.698 C 245 16.218, 260.082 16.991, 263.300 18.637 C 268.900 21.501, 278.573 29.762, 282.915 35.389 C 291.705 46.783, 301.985 53.854, 328.283 66.595 C 333.663 69.202, 337.713 71.684, 337.283 72.110 C 336.852 72.536, 332.041 74.677, 326.592 76.867 C 317.211 80.638, 316.865 80.879, 320.092 81.401 C 337.902 84.279, 359.191 87, 359.999 86.501 C 360.642 86.103, 361 70.527, 361 42.941 L 361 0 180.500 0 L 0 0 0 43.500 M 0.459 44 C 0.459 67.925, 0.589 77.713, 0.749 65.750 C 0.908 53.788, 0.908 34.213, 0.749 22.250 C 0.589 10.288, 0.459 20.075, 0.459 44 M 0.168 292.253 L 0 481.005 180.250 480.753 L 360.500 480.500 360.681 291.500 C 360.783 185.176, 360.486 103.375, 360.001 104.500 C 359.528 105.600, 359.109 109.098, 359.070 112.273 C 359.032 115.448, 358.091 126.923, 356.981 137.773 C 345.657 248.383, 312.499 342.660, 263.345 404 C 248.175 422.931, 215.522 454.044, 192.686 471.327 C 179.881 481.018, 181.290 480.752, 172.826 475.081 C 152.861 461.705, 112.387 423.770, 96.151 403.216 C 49.674 344.377, 18.008 258.227, 5.101 155.500 C 3.995 146.700, 2.612 133.200, 2.028 125.500 C 1.443 117.800, 0.824 109.700, 0.651 107.500 C 0.478 105.300, 0.261 188.439, 0.168 292.253 M 0.490 292.500 C 0.490 396.450, 0.607 438.827, 0.750 386.671 C 0.893 334.514, 0.893 249.464, 0.750 197.671 C 0.607 145.877, 0.490 188.550, 0.490 292.500" stroke="none" fill="#f2f2f2" fill-rule="evenodd"/></svg>